<svg preserveAspectRatio="none" width="100%" height="100%" overflow="visible" style="display: block;" viewBox="0 0 14 14" fill="none" xmlns="http://www.w3.org/2000/svg">
<g id="project-whatsapp-l" clip-path="url(#clip0_0_1897)">
<g id="whatsapp-svgrepo-com 1">
<path id="Vector" d="M11.1643 2.81168C10.1051 1.75249 8.64194 1.09729 7.02559 1.09729C3.7933 1.09729 1.1725 3.7177 1.1725 6.95039C1.1725 8.02611 1.46269 9.03372 1.96866 9.89997L1.9537 9.87241L1.12328 12.9051L4.22564 12.0912C5.03322 12.5397 5.99673 12.8035 7.02205 12.8035H7.02441C10.2567 12.8023 12.8763 10.1815 12.8763 6.94921C12.8763 5.33365 12.2219 3.87126 11.1639 2.81208L11.1643 2.81168ZM7.02441 11.8148H7.02244C6.10934 11.8148 5.25451 11.5628 4.52489 11.1245L4.54694 11.1367L4.36936 11.0316L2.52858 11.5147L3.01958 9.71963L2.90382 9.53575C2.43723 8.80259 2.16002 7.90917 2.16002 6.95078C2.16002 4.26462 4.33786 2.08679 7.02402 2.08679C9.71018 2.08679 11.888 4.26462 11.888 6.95078C11.888 9.63694 9.71097 11.8148 7.02441 11.8148ZM9.69246 8.17219C9.54638 8.09896 8.82739 7.74576 8.69352 7.69654C8.55925 7.64772 8.4616 7.6237 8.36395 7.77018C8.26709 7.91626 7.98674 8.24543 7.90129 8.34308C7.81624 8.44113 7.73041 8.45294 7.58432 8.38009C7.13151 8.19661 6.74249 7.95209 6.40426 7.65087L6.40819 7.65441C6.09359 7.36304 5.82387 7.02953 5.60613 6.66177L5.5951 6.64129C5.51005 6.49521 5.58604 6.41607 5.65889 6.34323C5.72464 6.27786 5.80536 6.17234 5.87821 6.08729C5.93569 6.01681 5.98491 5.93609 6.02232 5.84946L6.02468 5.84277C6.04161 5.80851 6.05146 5.76874 6.05146 5.72622C6.05146 5.67464 6.03689 5.6266 6.01169 5.58565L6.01248 5.58683C5.97546 5.51359 5.6833 4.79382 5.56163 4.50087C5.44272 4.21579 5.32184 4.25478 5.23246 4.25005C5.14741 4.24611 5.04976 4.24533 4.95211 4.24533C4.79658 4.24926 4.65837 4.31935 4.56308 4.42763L4.56269 4.42842C4.2469 4.72806 4.05081 5.15056 4.05081 5.61873C4.05081 5.62896 4.05081 5.63959 4.05121 5.64983V5.64826C4.10279 6.22589 4.31935 6.74446 4.65246 7.16695L4.64774 7.16104C5.27931 8.09778 6.12115 8.84708 7.10907 9.35187L7.14608 9.3688C7.36186 9.46645 7.63827 9.57079 7.92098 9.66018L7.97965 9.67632C8.15369 9.73144 8.35411 9.76334 8.56201 9.76334C8.68131 9.76334 8.79865 9.75271 8.91205 9.73263L8.89984 9.7342C9.32076 9.64639 9.67002 9.39243 9.88304 9.04553L9.88658 9.03884C9.95155 8.89473 9.98935 8.72659 9.98935 8.5498C9.98935 8.47696 9.98305 8.40569 9.97084 8.33639L9.97203 8.34387C9.9358 8.28284 9.83815 8.24661 9.69168 8.17298L9.69246 8.17219Z" fill="var(--fill-0, white)"/>
</g>
</g>
<defs>
<clipPath id="clip0_0_1897">
<rect width="14" height="14" fill="white"/>
</clipPath>
</defs>
</svg>
