<svg preserveAspectRatio="none" width="100%" height="100%" overflow="visible" style="display: block;" viewBox="0 0 20 20" fill="none" xmlns="http://www.w3.org/2000/svg">
<path d="M3.25 6.25C3.25 5.42157 3.92157 4.75 4.75 4.75H14.5C15.3284 4.75 16 5.42157 16 6.25V7.25H15.25C14.4216 7.25 13.75 7.92157 13.75 8.75V11.25C13.75 12.0784 14.4216 12.75 15.25 12.75H16V13.75C16 14.5784 15.3284 15.25 14.5 15.25H4.75C3.92157 15.25 3.25 14.5784 3.25 13.75V6.25Z" stroke="#2A2A38" stroke-opacity="0.9" stroke-width="1.15"/>
<path d="M16 7.25H16.35C16.5709 7.25 16.75 7.42909 16.75 7.65V12.35C16.75 12.5709 16.5709 12.75 16.35 12.75H16" stroke="#2A2A38" stroke-opacity="0.9" stroke-width="1.15" stroke-linecap="round"/>
<circle cx="15.25" cy="10" r="0.65" fill="#2A2A38" fill-opacity="0.9"/>
</svg>
