<svg preserveAspectRatio="none" width="100%" height="100%" overflow="visible" style="display: block;" viewBox="0 0 20 20" fill="none" xmlns="http://www.w3.org/2000/svg">
<g id="docs-l">
<path id="Union" d="M16.288 1.89443C16.3361 1.89836 16.4034 1.90816 16.4775 1.93447L16.5536 1.9667L16.6484 2.02431C16.7075 2.06732 16.7597 2.11952 16.8027 2.17861L16.8603 2.27236L16.8925 2.34853C16.9189 2.42266 16.9276 2.48973 16.9316 2.53798C16.9363 2.59641 16.9365 2.66308 16.9365 2.71084V17.6796C16.9365 17.7273 16.9373 17.794 16.9326 17.8524C16.9299 17.8844 16.9247 17.9245 16.914 17.9696C16.9056 18.0058 16.8918 18.0443 16.874 18.0849C16.8692 18.0956 16.8658 18.1072 16.8603 18.1181C16.7932 18.2496 16.6861 18.3566 16.5546 18.4237C16.4513 18.4764 16.3533 18.4907 16.289 18.496C16.2306 18.5008 16.1639 18.4999 16.1161 18.4999L6.00091 18.4999C5.58925 18.4999 5.24969 18.4999 4.97454 18.4774C4.69363 18.4545 4.43488 18.4057 4.19232 18.2821C3.81618 18.0904 3.51 17.7842 3.31829 17.4081C3.19473 17.1655 3.14595 16.9068 3.12298 16.6259C3.1005 16.3507 3.10052 16.0113 3.10052 15.5995L3.10052 4.79091C3.10052 4.37914 3.1005 4.03975 3.12298 3.76455C3.14594 3.48357 3.1947 3.22493 3.31829 2.98232C3.50999 2.60614 3.81616 2.30004 4.19232 2.1083C4.43488 1.9847 4.69364 1.93596 4.97454 1.91298C5.24969 1.8905 5.58925 1.89052 6.00091 1.89052L16.1161 1.89052L16.288 1.89443ZM4.14544 15.5995C4.14544 16.0278 4.14561 16.3198 4.164 16.5448C4.18191 16.7638 4.215 16.8758 4.25482 16.954C4.35066 17.142 4.50337 17.2947 4.69134 17.3905C4.76949 17.4303 4.88164 17.4634 5.10052 17.4813C5.32555 17.4997 5.6176 17.4999 6.04583 17.4999H15.9365V14.4999L4.14544 14.4999V15.5995ZM6.00091 2.89052C5.57277 2.89052 5.2806 2.89069 5.0556 2.90908C4.83685 2.927 4.72454 2.9601 4.64642 2.9999C4.45854 3.09574 4.3057 3.24852 4.2099 3.43642C4.1701 3.51457 4.13699 3.62676 4.11908 3.8456C4.10069 4.07064 4.10052 4.36264 4.10052 4.79091L4.10052 13.4999L15.9365 13.4999L15.9365 2.89052L6.00091 2.89052ZM12.4736 5.13662C12.7496 5.13672 12.9736 5.36054 12.9736 5.63662C12.9734 5.91253 12.7495 6.13652 12.4736 6.13662L7.62493 6.13662C7.34891 6.13662 7.12513 5.9126 7.12493 5.63662C7.12493 5.36047 7.34879 5.13662 7.62493 5.13662L12.4736 5.13662Z" fill="var(--fill-0, black)" fill-opacity="0.9"/>
</g>
</svg>
