<svg preserveAspectRatio="none" width="100%" height="100%" overflow="visible" style="display: block;" viewBox="0 0 20 20" fill="none" xmlns="http://www.w3.org/2000/svg">
<g id="project-discord-l">
<path id="Union" d="M7.04695 2.6045C6.7929 2.46141 6.49486 2.41615 6.21003 2.47853L6.21101 2.4795C5.32932 2.67057 4.46592 2.93778 3.63093 3.27931H3.62995L3.6153 3.28517H3.61628C3.45287 3.34886 3.30555 3.44909 3.18659 3.57814C3.06605 3.70903 2.97757 3.86635 2.9278 4.03712L0.0508514 13.6426C-0.0142723 13.8598 -0.0152567 14.0915 0.0469451 14.3096C0.109239 14.5276 0.232466 14.7239 0.402414 14.874L0.405344 14.876C1.7839 16.0755 3.66016 16.9897 5.79988 17.5137L5.80085 17.5127C6.05988 17.578 6.33304 17.5525 6.57527 17.4395C6.81675 17.3268 7.01244 17.135 7.12898 16.8955L7.99616 15.1768C8.65932 15.259 9.32792 15.3016 9.99812 15.2969L9.99714 15.2979C9.99839 15.2978 9.9998 15.2969 10.001 15.2969L10.004 15.2979V15.2969C10.6739 15.3015 11.3421 15.259 12.005 15.1768L12.8712 16.8965L12.8721 16.8955C12.9887 17.1347 13.1837 17.3268 13.4249 17.4395C13.6673 17.5526 13.941 17.5782 14.2003 17.5127V17.5137C16.3401 16.9897 18.2162 16.0756 19.5948 14.876L19.5977 14.874C19.7678 14.7239 19.8909 14.5277 19.9532 14.3096C20.0154 14.0915 20.0144 13.8599 19.9493 13.6426L17.0723 4.03712C17.0226 3.86638 16.9341 3.709 16.8135 3.57814C16.6948 3.4494 16.5478 3.34885 16.3848 3.28517C15.5455 2.94086 14.6767 2.67169 13.7901 2.4795C13.5053 2.41721 13.2072 2.46136 12.9532 2.6045C12.7309 2.72985 12.5556 2.92307 12.4522 3.15431L12.4122 3.25587L12.4102 3.25978L11.8712 4.89259C11.2523 4.82119 10.6287 4.78768 10.004 4.79201V4.79103L10.001 4.79201C9.9998 4.79201 9.99839 4.7911 9.99714 4.79103L9.99812 4.79201C9.37307 4.78763 8.7491 4.82214 8.12995 4.89357L7.58991 3.25978L7.58796 3.25587C7.49382 2.97984 7.301 2.74774 7.04695 2.6045ZM6.55671 3.4756C6.59525 3.49747 6.62443 3.53273 6.63972 3.57423L7.12702 5.04396C6.51131 5.15662 5.90185 5.30545 5.30281 5.49318C5.03942 5.57573 4.89331 5.85673 4.97566 6.12013C5.02739 6.28471 5.15596 6.40437 5.30964 6.45021C5.37091 6.46849 5.43618 6.47448 5.50202 6.46779C5.53513 6.46442 5.56862 6.45761 5.60163 6.44728C6.31252 6.2245 7.0388 6.05797 7.77351 5.94826C7.78749 5.94617 7.80152 5.94444 7.8155 5.9424C7.83839 5.94102 7.8609 5.93728 7.88386 5.93263C8.03102 5.91182 8.17848 5.89319 8.32624 5.87697C8.88027 5.81612 9.4383 5.7869 9.99714 5.79103H10.004C10.5629 5.7869 11.1208 5.8161 11.6749 5.87697C11.824 5.89334 11.9727 5.91257 12.1212 5.93361C12.1431 5.93785 12.1647 5.94115 12.1866 5.9424C12.9353 6.05201 13.6754 6.22034 14.3995 6.44728C14.4323 6.45755 14.4652 6.46439 14.4981 6.46779C14.5643 6.47461 14.6299 6.46854 14.6915 6.45021C14.8454 6.4044 14.9748 6.28483 15.0264 6.12013C15.1087 5.85677 14.9616 5.57573 14.6983 5.49318C14.0993 5.30544 13.4898 5.15663 12.8741 5.04396L13.3604 3.57423H13.3614C13.3767 3.53284 13.405 3.49744 13.4434 3.4756C13.4834 3.45304 13.5314 3.44535 13.5762 3.45509L13.5772 3.45607C14.4069 3.63584 15.2196 3.8878 16.005 4.20997C16.0094 4.2118 16.0141 4.21412 16.0186 4.21583C16.041 4.22422 16.062 4.23837 16.0782 4.25587C16.0942 4.27332 16.1058 4.29466 16.1124 4.3174L16.1143 4.32423L18.9913 13.9297C19.0015 13.9639 19.002 14.0008 18.9923 14.0352C18.9824 14.0696 18.9625 14.1004 18.9356 14.124H18.9366C17.7018 15.1978 15.98 16.048 13.963 16.542L13.9561 16.544C13.92 16.5532 13.8816 16.5498 13.8477 16.5342C13.8139 16.5183 13.7857 16.4907 13.7696 16.4571L13.7647 16.4463L13.044 15.0137C13.6019 14.9052 14.1545 14.7671 14.6983 14.5967C14.9616 14.5142 15.1086 14.233 15.0264 13.9697C14.9439 13.7063 14.6629 13.5592 14.3995 13.6416C12.9775 14.0873 11.4941 14.3089 10.004 14.2979H9.99714C8.50704 14.3089 7.02359 14.0872 5.60163 13.6416C5.33823 13.5592 5.05822 13.7064 4.97566 13.9697C4.89331 14.2332 5.03942 14.5142 5.30281 14.5967C5.84723 14.7673 6.40058 14.9042 6.95906 15.0127L6.23542 16.4463L6.23054 16.4561L6.68171 16.6709L6.23054 16.4571C6.21436 16.4908 6.18636 16.5184 6.15241 16.5342C6.11854 16.5499 6.08017 16.5533 6.04402 16.544L6.03718 16.542C4.02056 16.0481 2.29925 15.1975 1.06452 14.124C1.03779 14.1004 1.01769 14.0695 1.00788 14.0352C0.998158 14.0009 0.998614 13.9639 1.00886 13.9297L3.88581 4.32423L3.88777 4.3174C3.89432 4.29462 3.90593 4.27335 3.92195 4.25587C3.93819 4.23828 3.9591 4.22425 3.98152 4.21583C3.98612 4.2141 3.99063 4.21184 3.99519 4.20997C4.78064 3.88774 5.59319 3.63586 6.42292 3.45607L6.4239 3.45509C6.46879 3.44526 6.51666 3.45308 6.55671 3.4756ZM12.7159 10C12.1535 10 11.6973 10.4562 11.6973 11.0186C11.6975 11.5808 12.1536 12.0362 12.7159 12.0362C13.2781 12.036 13.7333 11.5808 13.7335 11.0186C13.7335 10.4563 13.2782 10.0001 12.7159 10ZM7.28523 10C6.72285 10 6.26667 10.4562 6.26667 11.0186C6.26682 11.5808 6.72294 12.0362 7.28523 12.0362C7.84742 12.036 8.30265 11.5808 8.30281 11.0186C8.30281 10.4563 7.84751 10.0001 7.28523 10Z" fill="var(--fill-0, black)" fill-opacity="0.9"/>
</g>
</svg>
