<svg preserveAspectRatio="none" width="100%" height="100%" overflow="visible" style="display: block;" viewBox="0 0 16 16" fill="none" xmlns="http://www.w3.org/2000/svg">
<g id="project-telegram-l">
<path id="Vector" d="M14.1691 2.04766C14.3772 2.0658 14.6395 2.1405 14.8332 2.36875C15.0262 2.59632 15.0895 2.90395 15.0598 3.25547C15.0411 3.51805 14.9519 4.0847 14.8426 4.78047C14.7312 5.48941 14.5946 6.36126 14.4754 7.26641L14.4746 7.275L13.652 12.6711C13.651 12.6793 13.6504 12.6895 13.6488 12.7008C13.6447 12.7304 13.6378 12.7708 13.6277 12.8188C13.6077 12.9137 13.5724 13.0445 13.5113 13.1836C13.3919 13.456 13.1427 13.8209 12.6582 13.9289C12.2099 14.0288 11.7171 13.8537 11.3777 13.6945C11.0288 13.5309 10.7348 13.3312 10.6176 13.2391C10.6155 13.2376 10.6054 13.2314 10.5832 13.2164C10.5591 13.2002 10.5267 13.1782 10.4863 13.1516C10.4055 13.0982 10.2968 13.0274 10.166 12.9414C9.90491 12.7698 9.55919 12.5421 9.19102 12.2938C8.46311 11.8027 7.61885 11.2123 7.16758 10.8141V10.8133C7.01733 10.6832 6.8093 10.4519 6.7582 10.1297C6.70177 9.77343 6.85261 9.4265 7.19023 9.125C7.37794 8.94564 8.28253 8.00885 9.18164 7.06484C9.05266 7.14645 8.92215 7.22924 8.79102 7.3125C7.36336 8.21896 5.87976 9.17678 5.60117 9.36641L5.59492 9.37109L5.58867 9.375L5.58789 9.37578H5.58711L5.58008 9.38047C5.5768 9.38243 5.57272 9.38423 5.56836 9.38672C5.55938 9.39186 5.54831 9.39846 5.53477 9.40547C5.50753 9.41956 5.47084 9.437 5.42539 9.45547C5.33413 9.49252 5.20636 9.53439 5.04414 9.56328C4.71716 9.62147 4.25909 9.62596 3.68477 9.45312L3.68242 9.45234L1.45508 8.76562L1.40508 8.75L1.36055 8.72187L1.35898 8.72109L1.33789 8.70703C1.32718 8.69968 1.3131 8.68946 1.29727 8.67734C1.26611 8.65349 1.22454 8.61887 1.18086 8.57422C1.1002 8.49173 0.976026 8.33756 0.942578 8.12188C0.904824 7.87784 0.995139 7.64265 1.18867 7.44844C1.3631 7.27346 1.62689 7.12428 1.98477 6.98984C5.42255 5.36904 9.6547 3.71292 13.3777 2.17109L13.3855 2.16797L13.5309 2.54063L13.3855 2.16719H13.3863L13.3934 2.16484C13.3974 2.16334 13.4027 2.16086 13.409 2.15859C13.4216 2.15407 13.4388 2.14822 13.4598 2.14141C13.5017 2.1278 13.5605 2.11014 13.6301 2.09375C13.7644 2.06213 13.9619 2.02959 14.1691 2.04766ZM14.0996 2.84453C14.0115 2.83686 13.9073 2.85063 13.8137 2.87266C13.7692 2.88312 13.7317 2.8942 13.7066 2.90234C13.6946 2.90624 13.6855 2.90899 13.6801 2.91094C9.93487 4.46189 5.73979 6.10465 2.32617 7.71406L2.30977 7.72109L2.29336 7.72734C1.96593 7.84752 1.81617 7.95199 1.75508 8.01328C1.75442 8.01395 1.75336 8.0142 1.75273 8.01484C1.75538 8.01754 1.75871 8.01941 1.76133 8.02188L3.91992 8.68828C4.37114 8.82337 4.70007 8.81197 4.90352 8.77578C5.00659 8.75744 5.08023 8.73176 5.12383 8.71406C5.14544 8.70529 5.16003 8.69881 5.1668 8.69531H5.16602C5.49013 8.47633 6.96053 7.52741 8.36211 6.6375C9.07565 6.18445 9.77507 5.74415 10.3004 5.42109C10.5624 5.25995 10.7842 5.12646 10.9434 5.03438C11.022 4.98889 11.0907 4.95031 11.1434 4.92344C11.168 4.91086 11.1992 4.89567 11.2301 4.88359C11.2434 4.87839 11.2738 4.86693 11.3113 4.85938C11.3292 4.85578 11.368 4.84882 11.4168 4.85156C11.4564 4.85379 11.5763 4.86593 11.6793 4.96875C11.8004 5.08982 11.7999 5.23449 11.7957 5.28594C11.791 5.3432 11.7753 5.38645 11.7684 5.40391C11.7533 5.4418 11.7352 5.4708 11.7285 5.48125C11.7119 5.50734 11.6931 5.53244 11.6793 5.55C11.6491 5.58837 11.6069 5.63674 11.559 5.69141C11.4616 5.80258 11.3219 5.95681 11.1543 6.13828C10.8182 6.5022 10.3625 6.98636 9.89336 7.47969C8.95958 8.46165 7.95681 9.49842 7.74258 9.70312L7.73633 9.70937L7.73008 9.71484C7.62593 9.80627 7.58164 9.87646 7.56289 9.91953C7.54576 9.95893 7.54572 9.9851 7.54883 10.0047C7.55519 10.0444 7.58301 10.0969 7.63398 10.1531L7.69258 10.2109L7.69648 10.2141C8.10185 10.5719 8.90204 11.1335 9.63867 11.6305C10.0027 11.8761 10.3448 12.1017 10.6051 12.2727L11.0988 12.6L11.1082 12.6078C11.1694 12.6569 11.4168 12.8293 11.7176 12.9703C12.0376 13.1204 12.3156 13.1851 12.484 13.1477C12.616 13.1182 12.7096 13.0195 12.7785 12.8625C12.8116 12.787 12.8328 12.7115 12.8449 12.6539C12.8508 12.6258 12.8539 12.6032 12.8559 12.5891C12.8568 12.5822 12.8579 12.5774 12.8582 12.575V12.5734L12.859 12.5633L12.8613 12.55L13.6832 7.15391C13.8036 6.24061 13.941 5.36278 14.052 4.65625C14.1653 3.93443 14.2465 3.41779 14.2621 3.19922L14.2629 3.19297C14.2831 2.96338 14.2309 2.89522 14.223 2.88594C14.2143 2.87571 14.1869 2.85214 14.0996 2.84453ZM5.16914 8.69375C5.16855 8.69411 5.16762 8.69481 5.1668 8.69531C5.1697 8.69381 5.17148 8.69297 5.17148 8.69297C5.17125 8.6931 5.1702 8.69312 5.16914 8.69375Z" fill="var(--fill-0, black)" fill-opacity="0.9"/>
</g>
</svg>
