<svg preserveAspectRatio="none" width="100%" height="100%" overflow="visible" style="display: block;" viewBox="0 0 20 20" fill="none" xmlns="http://www.w3.org/2000/svg">
<g id="gift-l">
<path id="Union" d="M12.3828 1.9082C13.0521 1.90826 13.6937 2.17428 14.167 2.64746C14.6403 3.12084 14.9062 3.76317 14.9062 4.43262C14.9062 5.10197 14.6403 5.74347 14.167 6.2168L13.8135 5.86328L14.166 6.21875C14.1322 6.25223 14.0969 6.2843 14.0605 6.31543H17.4092C18.0573 6.3155 18.583 6.84119 18.583 7.48926V10.1836C18.5828 10.8315 18.0572 11.3564 17.4092 11.3564H17.2363V16.9189C17.2362 17.2298 17.1123 17.5281 16.8926 17.748C16.6726 17.968 16.3736 18.0917 16.0625 18.0918H10.0107C10.0072 18.0919 10.0036 18.0928 10 18.0928C9.9964 18.0928 9.99284 18.0919 9.98926 18.0918H3.93945C3.62832 18.0918 3.32943 17.968 3.10938 17.748C2.88948 17.5281 2.76574 17.23 2.76562 16.9189V11.3564H2.5918C1.94377 11.3564 1.41816 10.8315 1.41797 10.1836V7.48926C1.41797 6.84114 1.94365 6.31543 2.5918 6.31543H5.94043C5.90405 6.2843 5.86875 6.25223 5.83496 6.21875L6.18652 5.86328L5.83301 6.2168C5.35986 5.74349 5.09381 5.10187 5.09375 4.43262C5.09375 3.76317 5.35965 3.12084 5.83301 2.64746C6.30634 2.17425 6.94885 1.9082 7.61816 1.9082C8.28722 1.90842 8.9292 2.17439 9.40234 2.64746L9.4043 2.64941C9.67283 2.92053 9.86062 3.28164 10 3.64844C10.1396 3.28154 10.3279 2.92055 10.5967 2.64941L10.5977 2.64746C11.071 2.17408 11.7134 1.9082 12.3828 1.9082ZM3.76562 16.9189C3.76574 16.9648 3.78405 17.0086 3.81641 17.041C3.84893 17.0734 3.89355 17.0918 3.93945 17.0918H9.5V11.3564H3.76562V16.9189ZM10.5 17.0918H16.0625C16.1083 17.0917 16.1531 17.0734 16.1855 17.041C16.2177 17.0086 16.2362 16.9646 16.2363 16.9189V11.3564H10.5V17.0918ZM2.5918 7.31543C2.49599 7.31543 2.41797 7.39337 2.41797 7.48926V10.1836C2.41816 10.2793 2.4961 10.3564 2.5918 10.3564H9.5V7.31543H2.5918ZM10.5 10.3564H17.4092C17.5048 10.3564 17.5828 10.2793 17.583 10.1836V7.48926C17.583 7.39342 17.5049 7.3155 17.4092 7.31543H10.5V10.3564ZM7.61816 2.9082C7.21408 2.9082 6.82584 3.06881 6.54004 3.35449C6.25422 3.64033 6.09375 4.02837 6.09375 4.43262C6.09381 4.83621 6.25407 5.22312 6.53906 5.50879L6.60352 5.56738C6.76827 5.70378 7.01882 5.8311 7.34473 5.93945C7.7087 6.06039 8.12458 6.14412 8.52441 6.20117C8.88152 6.25209 9.21764 6.27834 9.47949 6.29395C9.46388 6.03197 9.43767 5.6961 9.38672 5.33887C9.32966 4.9389 9.24598 4.52325 9.125 4.15918C9.00162 3.78802 8.85344 3.51488 8.69531 3.35449C8.4097 3.06895 8.02199 2.90842 7.61816 2.9082ZM12.3828 2.9082C11.9793 2.9082 11.5914 3.06758 11.3057 3.35254C11.147 3.51269 10.9997 3.78694 10.876 4.15918C10.755 4.52329 10.6713 4.93885 10.6143 5.33887C10.5633 5.69616 10.5361 6.03193 10.5205 6.29395C10.7826 6.27833 11.119 6.2522 11.4766 6.20117C11.8765 6.1441 12.2913 6.06043 12.6553 5.93945C13.0267 5.81602 13.2996 5.66799 13.46 5.50977C13.7457 5.22398 13.9062 4.83677 13.9062 4.43262C13.9062 4.02837 13.7458 3.64033 13.46 3.35449C13.1742 3.06884 12.7868 2.90826 12.3828 2.9082Z" fill="var(--fill-0, black)" fill-opacity="0.9"/>
</g>
</svg>
