<svg preserveAspectRatio="none" width="100%" height="100%" overflow="visible" style="display: block;" viewBox="0 0 66.8569 24" fill="none" xmlns="http://www.w3.org/2000/svg">
<g id="SymbolText-b-g-h">
<path id="AlvaText" d="M58.1729 4.88965C59.534 4.88965 60.7509 5.06768 61.8223 5.42383C62.8992 5.78 63.8093 6.29575 64.5527 6.96973C65.3016 7.64368 65.873 8.46808 66.2666 9.44336C66.6602 10.4187 66.8564 11.523 66.8564 12.7559V23.5068H62.7402V18.7559C62.5271 19.5667 62.2052 20.2982 61.7734 20.9502C61.3471 21.5968 60.8247 22.1477 60.207 22.6025C59.5894 23.0518 58.8867 23.3966 58.0996 23.6377C57.318 23.8788 56.468 24 55.5498 24C54.5932 24 53.7208 23.8685 52.9336 23.6055C52.1519 23.3479 51.4824 22.983 50.9248 22.5117C50.3673 22.0405 49.935 21.4735 49.6289 20.8105C49.3283 20.1422 49.1778 19.4026 49.1777 18.5918C49.1777 17.748 49.3453 16.9917 49.6787 16.3232C50.0122 15.6547 50.4901 15.0869 51.1133 14.6211C51.7419 14.1554 52.5073 13.7993 53.4092 13.5527C54.3112 13.3007 55.3284 13.1748 56.46 13.1748H62.7402V12.7559C62.7402 12.0711 62.634 11.4574 62.4209 10.915C62.2077 10.3671 61.8987 9.90114 61.4941 9.51758C61.0952 9.13409 60.609 8.84043 60.0352 8.6377C59.4613 8.435 58.8132 8.33403 58.0918 8.33398C57.3593 8.33398 56.7218 8.419 56.1807 8.58887C55.645 8.75325 55.2024 8.98908 54.8525 9.2959C54.5028 9.60273 54.2427 9.97245 54.0732 10.4053C53.9038 10.8381 53.8193 11.3235 53.8193 11.8604H49.7109C49.7109 10.7918 49.9082 9.82708 50.3018 8.9668C50.6953 8.10659 51.2555 7.37517 51.9824 6.77246C52.7149 6.16424 53.6034 5.69829 54.6475 5.375C55.6969 5.05175 56.872 4.88969 58.1729 4.88965ZM22.9268 23.5068H18.335L16.4902 17.9756H6.37109L4.49316 23.5068H0L8.41309 0H14.6279L22.9268 23.5068ZM28.6914 23.5068H24.5752V0H28.6914V23.5068ZM39.7783 20.9258L44.7969 5.38379H49.0029L42.7217 23.5068H36.7363L30.5127 5.38379H34.8174L39.7783 20.9258ZM56.6973 16.0684C55.5712 16.0684 54.7181 16.2577 54.1387 16.6357C53.565 17.0138 53.2783 17.573 53.2783 18.3125C53.2784 19.0902 53.5924 19.6872 54.2207 20.1035C54.8548 20.5145 55.7683 20.7207 56.96 20.7207C57.8017 20.7207 58.5751 20.6187 59.2803 20.416C59.9909 20.2078 60.6 19.9198 61.1084 19.5527C61.6222 19.1856 62.0214 18.7502 62.3057 18.2461C62.5954 17.7365 62.7402 17.1832 62.7402 16.5859V16.0684H56.6973ZM7.61719 14.293H15.2598L11.4629 2.93457L7.61719 14.293Z" fill="var(--fill-0, black)"/>
</g>
</svg>
