<svg preserveAspectRatio="none" width="100%" height="100%" overflow="visible" style="display: block;" viewBox="0 0 16 16" fill="none" xmlns="http://www.w3.org/2000/svg">
<g id="chat-new-l">
<path id="Union" d="M8.8 2C9.02084 2 9.19987 2.17919 9.2 2.4C9.2 2.62091 9.02091 2.8 8.8 2.8H3.6C2.93738 2.80005 2.40013 3.3374 2.4 4V13.7898C2.4002 13.9958 2.64253 14.1057 2.79766 13.9703L4.71016 12.2969C4.92887 12.1055 5.21018 12 5.50078 12H12.4C13.0627 12 13.6 11.4627 13.6 10.8V8C13.6001 7.77923 13.7792 7.60006 14 7.6C14.2208 7.6 14.3999 7.77919 14.4 8V10.8C14.4 11.9046 13.5046 12.8 12.4 12.8H5.50078C5.40398 12.8 5.31037 12.8355 5.2375 12.8992L3.325 14.5727C2.65261 15.1608 1.6002 14.6832 1.6 13.7898V4C1.60013 2.89557 2.49556 2.00005 3.6 2H8.8ZM12.8 1.2C13.0209 1.2 13.2 1.37909 13.2 1.6V3.2H14.8C15.0209 3.2 15.2 3.37909 15.2 3.6C15.2 3.82091 15.0209 4 14.8 4H13.2V5.6C13.2 5.82091 13.0209 6 12.8 6C12.5791 6 12.4 5.82091 12.4 5.6V4H10.8C10.5791 4 10.4 3.82091 10.4 3.6C10.4 3.37909 10.5791 3.2 10.8 3.2H12.4V1.6C12.4 1.37909 12.5791 1.2 12.8 1.2Z" fill="var(--fill-0, black)" fill-opacity="0.9"/>
</g>
</svg>
