<svg preserveAspectRatio="none" width="100%" height="100%" overflow="visible" style="display: block;" viewBox="0 0 14 14" fill="none" xmlns="http://www.w3.org/2000/svg">
<g id="chat-new-l">
<path id="Union" d="M7.7 1.75C7.89323 1.75 8.04989 1.90679 8.05 2.1C8.05 2.2933 7.8933 2.45 7.7 2.45H3.15C2.57021 2.45005 2.10011 2.92022 2.1 3.5V12.0661C2.10018 12.2463 2.31221 12.3425 2.44795 12.224L4.12139 10.7598C4.31276 10.5923 4.5589 10.5 4.81318 10.5H10.85C11.4299 10.5 11.9 10.0299 11.9 9.45V7C11.9001 6.80682 12.0568 6.65005 12.25 6.65C12.4432 6.65 12.5999 6.80679 12.6 7V9.45C12.6 10.4165 11.8165 11.2 10.85 11.2H4.81318C4.72848 11.2 4.64658 11.2311 4.58281 11.2868L2.90937 12.7511C2.32104 13.2657 1.40018 12.8478 1.4 12.0661V3.5C1.40011 2.53363 2.18361 1.75005 3.15 1.75H7.7ZM11.2 1.05C11.3933 1.05 11.55 1.2067 11.55 1.4V2.8H12.95C13.1433 2.8 13.3 2.9567 13.3 3.15C13.3 3.3433 13.1433 3.5 12.95 3.5H11.55V4.9C11.55 5.0933 11.3933 5.25 11.2 5.25C11.0067 5.25 10.85 5.0933 10.85 4.9V3.5H9.45C9.2567 3.5 9.1 3.3433 9.1 3.15C9.1 2.9567 9.2567 2.8 9.45 2.8H10.85V1.4C10.85 1.2067 11.0067 1.05 11.2 1.05Z" fill="var(--fill-0, #49A3A6)"/>
</g>
</svg>
