<svg preserveAspectRatio="none" width="100%" height="100%" overflow="visible" style="display: block;" viewBox="0 0 20 20" fill="none" xmlns="http://www.w3.org/2000/svg">
<g id="chat-ai-l">
<path id="Union" d="M5.37735 2.50966C8.44333 2.09679 11.5574 2.09672 14.6234 2.50966C14.8688 2.54271 15.1154 2.57968 15.6078 2.65321C15.772 2.67772 15.8545 2.69065 15.9281 2.70594C16.8704 2.90209 17.6068 3.58913 17.8168 4.46863C17.8331 4.53722 17.8462 4.61441 17.8724 4.76746C17.9512 5.22665 17.9904 5.45651 18.0258 5.68543C18.4683 8.54694 18.4683 11.4538 18.0258 14.3153C17.9904 14.5442 17.9512 14.7741 17.8724 15.2332C17.8462 15.3863 17.8331 15.4635 17.8168 15.5321C17.6068 16.4116 16.8704 17.0986 15.9281 17.2948C15.8545 17.3101 15.7719 17.323 15.6078 17.3475C15.1154 17.421 14.8688 17.458 14.6234 17.491C11.5574 17.904 8.44333 17.9039 5.37735 17.491C5.30211 17.4809 5.22647 17.4702 5.14395 17.4578C5.00763 17.4375 4.86776 17.445 4.73477 17.4813L1.84415 18.2703C1.47098 18.372 1.1291 18.0293 1.23087 17.6561L1.9799 14.9081C2.0179 14.7684 2.02444 14.622 2.0004 14.4793C1.99086 14.4227 1.98234 14.369 1.97404 14.3153C1.53153 11.4537 1.53153 8.54696 1.97404 5.68543C2.00944 5.45652 2.04864 5.22661 2.12736 4.76746C2.15361 4.61432 2.16763 4.53726 2.184 4.46863C2.39402 3.58899 3.13009 2.90192 4.07266 2.70594C4.14609 2.6907 4.22827 2.67766 4.392 2.65321C4.88454 2.57966 5.13185 2.54272 5.37735 2.50966ZM14.4896 3.50086C11.5124 3.09991 8.48836 3.09998 5.51114 3.50086C5.27438 3.53275 5.03473 3.56851 4.53946 3.64246C4.37135 3.66757 4.31688 3.6769 4.27579 3.68543C3.68182 3.80912 3.26951 4.22844 3.15665 4.70105C3.14903 4.73305 3.1398 4.77838 3.11271 4.93641C3.0336 5.39782 2.99622 5.61956 2.96232 5.83875C2.53557 8.59868 2.53557 11.402 2.96232 14.162L2.98673 14.3133C3.03463 14.5977 3.02109 14.8903 2.94474 15.1707L2.42521 17.0741L4.47208 16.5164L4.67423 16.4725C4.80986 16.4503 4.94783 16.442 5.08536 16.4481L5.29141 16.4686L5.51114 16.4998C8.48836 16.9007 11.5124 16.9008 14.4896 16.4998C14.7262 16.468 14.9647 16.4322 15.4603 16.3582C15.6301 16.3329 15.6835 16.3237 15.724 16.3153C16.3182 16.1916 16.7313 15.7722 16.8441 15.2997C16.8511 15.2704 16.8583 15.2322 16.8871 15.0643C16.9662 14.6029 17.0036 14.3812 17.0375 14.162C17.4642 11.402 17.4642 8.59866 17.0375 5.83875L16.8871 4.93641C16.8583 4.76846 16.8511 4.73032 16.8441 4.70105C16.7313 4.22855 16.3182 3.80914 15.724 3.68543C15.6835 3.67702 15.6301 3.66781 15.4603 3.64246C14.9647 3.56846 14.7262 3.53273 14.4896 3.50086ZM7.31484 8.078C7.42753 7.97574 7.57218 7.97506 7.68496 8.07702L7.72207 8.11511C7.77784 8.1728 7.80593 8.20197 7.8334 8.23132C8.17696 8.59837 8.48175 9.03443 8.73867 9.52526C8.75917 9.56443 8.77938 9.60484 8.81972 9.68444C8.83314 9.71089 8.84051 9.72463 8.84609 9.73717C8.91764 9.89834 8.91773 10.1044 8.84609 10.2655C8.84051 10.278 8.83312 10.2918 8.81972 10.3182C8.77937 10.3978 8.7592 10.4382 8.73867 10.4774C8.48174 10.9682 8.17697 11.4043 7.8334 11.7713C7.80597 11.8006 7.77781 11.8299 7.72207 11.8876C7.70354 11.9067 7.69374 11.9167 7.68496 11.9247C7.57219 12.0269 7.42761 12.0269 7.31484 11.9247C7.30606 11.9167 7.29627 11.9067 7.27774 11.8876C7.22199 11.8299 7.19384 11.8006 7.16641 11.7713C6.82284 11.4043 6.51807 10.9682 6.26114 10.4774C6.2406 10.4382 6.22044 10.3978 6.18008 10.3182C6.16668 10.2918 6.1593 10.278 6.15371 10.2655C6.08208 10.1044 6.08216 9.89834 6.15371 9.73717C6.15929 9.72463 6.16667 9.71089 6.18008 9.68444C6.22043 9.60485 6.24064 9.56443 6.26114 9.52526C6.51806 9.03443 6.82285 8.59837 7.16641 8.23132C7.19157 8.20443 7.21706 8.17741 7.26406 8.12878L7.31484 8.078ZM12.3148 8.078C12.4273 7.97591 12.5713 7.97555 12.684 8.07702L12.7221 8.11511C12.7778 8.1728 12.8059 8.20197 12.8334 8.23132C13.177 8.59837 13.4817 9.03443 13.7387 9.52526C13.7592 9.56443 13.7794 9.60484 13.8197 9.68444C13.8331 9.71089 13.8405 9.72463 13.8461 9.73717C13.9176 9.89834 13.9177 10.1044 13.8461 10.2655C13.8405 10.278 13.8331 10.2918 13.8197 10.3182C13.7794 10.3978 13.7592 10.4382 13.7387 10.4774C13.4817 10.9682 13.177 11.4043 12.8334 11.7713C12.806 11.8006 12.7778 11.8299 12.7221 11.8876C12.7035 11.9067 12.6937 11.9167 12.685 11.9247C12.5722 12.0269 12.4276 12.0269 12.3148 11.9247C12.3061 11.9167 12.2963 11.9067 12.2777 11.8876C12.222 11.8299 12.1938 11.8006 12.1664 11.7713C11.8228 11.4043 11.5181 10.9682 11.2611 10.4774C11.2406 10.4382 11.2204 10.3978 11.1801 10.3182C11.1667 10.2918 11.1593 10.278 11.1537 10.2655C11.0821 10.1044 11.0821 9.89834 11.1537 9.73717C11.1593 9.72463 11.1667 9.71089 11.1801 9.68444C11.2204 9.60485 11.2406 9.56443 11.2611 9.52526C11.518 9.03443 11.8228 8.59837 12.1664 8.23132C12.1916 8.20443 12.2171 8.17741 12.2641 8.12878L12.3148 8.078Z" fill="var(--fill-0, black)" fill-opacity="0.9"/>
</g>
</svg>
