<svg preserveAspectRatio="none" width="100%" height="100%" overflow="visible" style="display: block;" viewBox="0 0 20 20" fill="none" xmlns="http://www.w3.org/2000/svg">
<g id="close-l1">
<path id="Union" d="M15.6465 3.64648C15.8418 3.45122 16.1583 3.45122 16.3536 3.64648C16.5486 3.84176 16.5488 4.15833 16.3536 4.35352L10.7071 10L16.3536 15.6465C16.5486 15.8418 16.5488 16.1583 16.3536 16.3535C16.1584 16.5485 15.8418 16.5485 15.6465 16.3535L10 10.707L4.35355 16.3535C4.15834 16.5485 3.84173 16.5485 3.64651 16.3535C3.45131 16.1583 3.45143 15.8418 3.64651 15.6465L9.29301 10L3.64651 4.35352C3.45131 4.15831 3.45143 3.84176 3.64651 3.64648C3.84178 3.45122 4.15828 3.45122 4.35355 3.64648L10 9.29298L15.6465 3.64648Z" fill="var(--fill-0, black)" fill-opacity="0.9"/>
</g>
</svg>
