<svg preserveAspectRatio="none" width="100%" height="100%" overflow="visible" style="display: block;" viewBox="0 0 14 14" fill="none" xmlns="http://www.w3.org/2000/svg">
<g id="close-l1">
<path id="Union" d="M10.9526 2.55254C11.0893 2.41586 11.3108 2.41586 11.4475 2.55254C11.584 2.68924 11.5841 2.91083 11.4475 3.04746L7.49495 7.00001L11.4475 10.9526C11.584 11.0892 11.5841 11.3108 11.4475 11.4475C11.3109 11.584 11.0892 11.584 10.9526 11.4475L7.00003 7.49493L3.04748 11.4475C2.91084 11.584 2.68921 11.584 2.55256 11.4475C2.41592 11.3108 2.416 11.0892 2.55256 10.9526L6.5051 7.00001L2.55256 3.04746C2.41592 2.91082 2.416 2.68923 2.55256 2.55254C2.68924 2.41586 2.9108 2.41586 3.04748 2.55254L7.00003 6.50508L10.9526 2.55254Z" fill="var(--fill-0, #2A2A38)"/>
</g>
</svg>
