<svg preserveAspectRatio="none" width="100%" height="100%" overflow="visible" style="display: block;" viewBox="0 0 20 20" fill="none" xmlns="http://www.w3.org/2000/svg">
<g id="Logo/Social" clip-path="url(#clip0_0_2123)">
<path id="Cloud Back" d="M16.0548 9.40137C15.9906 9.40137 15.9206 9.40137 15.8562 9.4107C15.8091 9.4107 15.7684 9.44528 15.7504 9.49203L15.4689 10.4707C15.346 10.893 15.3924 11.2796 15.5975 11.5677C15.7855 11.8314 16.1021 11.9827 16.4829 12.0006L18.0193 12.095C18.0657 12.095 18.1072 12.117 18.1301 12.1536C18.1537 12.1895 18.1593 12.2431 18.1479 12.2838C18.1243 12.3538 18.0536 12.4075 17.9779 12.4132L16.3771 12.5068C15.5096 12.5475 14.5786 13.2457 14.2498 14.1018L14.1327 14.4005C14.1091 14.46 14.1506 14.5185 14.2148 14.5185H19.7129C19.7772 14.5185 19.8357 14.4778 19.8537 14.4135C19.9472 14.0734 20.0002 13.716 20.0002 13.3466C20.0002 11.1779 18.2293 9.40745 16.0548 9.40745V9.40137Z" fill="var(--fill-0, #FAAE40)"/>
<path id="Cloud Front" d="M13.7573 14.0372C13.8803 13.6149 13.833 13.2283 13.6279 12.9411C13.4408 12.6774 13.1242 12.5252 12.7433 12.5073L5.52733 12.4137C5.5053 12.4141 5.48354 12.4088 5.46411 12.3984C5.44468 12.388 5.42821 12.3728 5.41625 12.3543C5.39267 12.3193 5.387 12.2722 5.39875 12.2249C5.42192 12.1549 5.49233 12.1012 5.56842 12.0947L12.8483 12.0012C13.7109 11.9604 14.6484 11.2622 14.9764 10.4065L15.3923 9.32208C15.4102 9.27533 15.4167 9.22808 15.4045 9.18208C14.9358 7.06017 13.042 5.47767 10.7796 5.47767C8.693 5.47767 6.92258 6.82575 6.28992 8.6955C5.87933 8.39067 5.35767 8.22675 4.79492 8.27967C3.79275 8.37883 2.9895 9.18217 2.88983 10.1843C2.86625 10.4427 2.88408 10.695 2.94275 10.9293C1.30692 10.9758 0 12.3128 0 13.96C0 14.1057 0.0118333 14.2529 0.0293333 14.3994C0.0410833 14.4686 0.0996667 14.5223 0.170083 14.5223H13.4879C13.5637 14.5223 13.6344 14.4686 13.6573 14.3929L13.7573 14.0372Z" fill="var(--fill-0, #F6821F)"/>
</g>
<defs>
<clipPath id="clip0_0_2123">
<rect width="20" height="20" fill="white"/>
</clipPath>
</defs>
</svg>
