<svg preserveAspectRatio="xMidYMid meet" width="100%" height="100%" overflow="visible" style="display: block;" viewBox="0 0 24 24" fill="none" xmlns="http://www.w3.org/2000/svg">
<path d="M2.4 5.5H21.6C22.3732 5.5 23 6.1268 23 6.9V19.1C23 19.8732 22.3732 20.5 21.6 20.5H2.4C1.6268 20.5 1 19.8732 1 19.1V6.9C1 6.1268 1.6268 5.5 2.4 5.5Z" fill="#FFFFFF"/>
<path d="M2.98 20.5H6.8V11.98L1 7.63V18.52C1 19.6135 1.88652 20.5 2.98 20.5Z" fill="#4285F4"/>
<path d="M17.2 20.5H21.02C22.1135 20.5 23 19.6135 23 18.52V7.63L17.2 11.98V20.5Z" fill="#34A853"/>
<path d="M17.2 7.63V11.98L23 7.63V6.86C23 5.64126 21.6079 4.94568 20.633 5.67711L17.2 8.25V7.63Z" fill="#FBBC04"/>
<path d="M6.8 11.98V7.63L12 11.53L17.2 7.63V11.98L12 15.88L6.8 11.98Z" fill="#EA4335"/>
<path d="M1 6.86V7.63L6.8 11.98V7.63L3.367 5.67711C2.39207 4.94568 1 5.64126 1 6.86Z" fill="#C5221F"/>
</svg>
