<svg preserveAspectRatio="none" width="100%" height="100%" overflow="visible" style="display: block;" viewBox="0 0 14 14" fill="none" xmlns="http://www.w3.org/2000/svg">
<g id="locked-f">
<path id="Union" d="M7.35 1.68027C8.74176 1.68027 9.86973 2.80824 9.86973 4.2V5.6H10.85C11.4299 5.6 11.9 6.0701 11.9 6.65V11.55C11.9 12.1299 11.4299 12.6 10.85 12.6H3.15C2.5701 12.6 2.1 12.1299 2.1 11.55V6.65C2.1 6.0701 2.5701 5.6 3.15 5.6H4.13027V4.2C4.13027 2.80824 5.25824 1.68027 6.65 1.68027H7.35ZM6.65 2.51973C5.72216 2.51973 4.96973 3.27216 4.96973 4.2V5.6H9.03027V4.2C9.03027 3.27216 8.27784 2.51973 7.35 2.51973H6.65Z" fill="var(--fill-0, black)" fill-opacity="0.9"/>
</g>
</svg>
