<svg preserveAspectRatio="none" width="100%" height="100%" overflow="visible" style="display: block;" viewBox="0 0 20 20" fill="none" xmlns="http://www.w3.org/2000/svg">
<g id="menu-l2">
<path id="Union" d="M9 15.5C9.27614 15.5 9.5 15.7239 9.5 16C9.5 16.2761 9.27614 16.5 9 16.5H3C2.72386 16.5 2.5 16.2761 2.5 16C2.5 15.7239 2.72386 15.5 3 15.5H9ZM13 9.5C13.2761 9.5 13.5 9.72386 13.5 10C13.5 10.2761 13.2761 10.5 13 10.5H3C2.72386 10.5 2.5 10.2761 2.5 10C2.5 9.72386 2.72386 9.5 3 9.5H13ZM17 3.5C17.2761 3.50008 17.5 3.72393 17.5 4C17.5 4.27609 17.2761 4.49992 17 4.5H3C2.72386 4.5 2.5 4.27614 2.5 4C2.50002 3.72387 2.72387 3.5 3 3.5H17Z" fill="var(--fill-0, black)" fill-opacity="0.9"/>
</g>
</svg>
