<svg preserveAspectRatio="none" width="100%" height="100%" overflow="visible" style="display: block;" viewBox="0 0 14 14" fill="none" xmlns="http://www.w3.org/2000/svg">
<g id="more-l2">
<path id="Union" d="M6.16016 10.9902C6.16016 10.5263 6.53608 10.1504 7 10.1504C7.46392 10.1504 7.83984 10.5263 7.83984 10.9902C7.83979 11.4541 7.46389 11.8301 7 11.8301C6.53611 11.8301 6.16021 11.4541 6.16016 10.9902ZM6.16016 7C6.16016 6.53608 6.53608 6.16016 7 6.16016C7.46392 6.16016 7.83984 6.53608 7.83984 7C7.83984 7.46392 7.46392 7.83984 7 7.83984C6.53608 7.83984 6.16016 7.46392 6.16016 7ZM6.16016 3.00977C6.16021 2.54589 6.53611 2.16992 7 2.16992C7.46389 2.16992 7.83979 2.54589 7.83984 3.00977C7.83984 3.47368 7.46392 3.84961 7 3.84961C6.53608 3.84961 6.16016 3.47368 6.16016 3.00977Z" fill="var(--fill-0, black)" fill-opacity="0.5"/>
</g>
</svg>
