<svg preserveAspectRatio="none" width="100%" height="100%" overflow="visible" style="display: block;" viewBox="0 0 14 14" fill="none" xmlns="http://www.w3.org/2000/svg">
<g id="remix-l">
<path id="Union" d="M1.4 3.14998C2.82347 3.14998 3.9492 3.3266 4.90479 3.89988C5.86139 4.47384 6.59941 5.41609 7.31309 6.84344C7.99935 8.21596 8.66149 9.02384 9.45479 9.49989C10.0694 9.86866 10.792 10.054 11.725 10.1199L10.9525 9.34744C10.8159 9.21077 10.8159 8.98921 10.9525 8.85252C11.0892 8.71584 11.3108 8.71584 11.4475 8.85252L12.8475 10.2525C12.8712 10.2762 12.8894 10.3032 12.9049 10.3311C12.9221 10.3621 12.936 10.3951 12.9432 10.4309C12.9522 10.4763 12.9522 10.523 12.9432 10.5683C12.9361 10.6042 12.922 10.6372 12.9049 10.6681C12.8894 10.6962 12.8713 10.7236 12.8475 10.7474L11.4475 12.1474C11.3108 12.2841 11.0892 12.2841 10.9525 12.1474C10.8159 12.0108 10.8159 11.7892 10.9525 11.6525L11.7783 10.8261C10.7318 10.7623 9.85911 10.5584 9.09522 10.1001C8.13861 9.52612 7.40059 8.58387 6.68691 7.15652C6.00065 5.784 5.33851 4.97613 4.54522 4.50007C3.75085 4.02345 2.77643 3.84998 1.4 3.84998C1.20671 3.84998 1.05001 3.69326 1.05 3.49998C1.05 3.30668 1.2067 3.14998 1.4 3.14998ZM5.89189 8.19695C6.00403 8.03953 6.22254 8.0028 6.37998 8.11492C6.5374 8.22706 6.57413 8.44557 6.46201 8.60301C5.84571 9.46841 5.16707 10.0409 4.33057 10.3899C3.5029 10.7352 2.54799 10.85 1.4 10.85C1.2067 10.85 1.05 10.6933 1.05 10.5C1.05 10.3067 1.2067 10.15 1.4 10.15C2.50993 10.15 3.35784 10.0374 4.06123 9.74393C4.75584 9.45412 5.33688 8.97631 5.89189 8.19695ZM10.9525 1.85251C11.0892 1.71583 11.3108 1.71583 11.4475 1.85251L12.8475 3.25251C12.8712 3.27622 12.8894 3.30321 12.9049 3.33113C12.9221 3.36207 12.936 3.39514 12.9432 3.43093C12.9522 3.47625 12.9522 3.52301 12.9432 3.56834C12.9361 3.60417 12.922 3.63715 12.9049 3.66814C12.8894 3.69624 12.8713 3.7236 12.8475 3.74744L11.4475 5.14744C11.3108 5.28408 11.0892 5.28406 10.9525 5.14744C10.8159 5.01076 10.8159 4.7892 10.9525 4.65252L11.7257 3.87869C11.026 3.92798 10.445 4.04485 9.93877 4.25603C9.24416 4.54584 8.66313 5.02365 8.10811 5.80301C7.99597 5.96043 7.77746 5.99716 7.62002 5.88504C7.4626 5.7729 7.42587 5.55439 7.53799 5.39695C8.15429 4.53155 8.83293 3.95904 9.66943 3.61003C10.2911 3.3507 10.9845 3.22084 11.7776 3.17253L10.9525 2.34744C10.8159 2.21076 10.8159 1.9892 10.9525 1.85251Z" fill="var(--fill-0, black)" fill-opacity="0.9"/>
</g>
</svg>
