<svg preserveAspectRatio="none" width="100%" height="100%" overflow="visible" style="display: block;" viewBox="0 0 20 20" fill="none" xmlns="http://www.w3.org/2000/svg">
<g id="remix-l">
<path id="Union" d="M2 4.49996C4.03354 4.49996 5.64171 4.75228 7.00684 5.57126C8.37341 6.39121 9.42773 7.73727 10.4473 9.77634C11.4276 11.7371 12.3736 12.8912 13.5068 13.5713C14.3849 14.0981 15.4171 14.3629 16.75 14.457L15.6465 13.3535C15.4512 13.1582 15.4513 12.8417 15.6465 12.6465C15.8417 12.4512 16.1583 12.4512 16.3535 12.6465L18.3535 14.6465C18.3874 14.6803 18.4134 14.7189 18.4355 14.7588C18.4601 14.803 18.48 14.8502 18.4902 14.9013C18.5032 14.9661 18.5031 15.0329 18.4902 15.0976C18.4801 15.1488 18.46 15.1959 18.4355 15.2402C18.4134 15.2803 18.3876 15.3194 18.3535 15.3535L16.3535 17.3535C16.1583 17.5487 15.8417 17.5487 15.6465 17.3535C15.4512 17.1582 15.4513 16.8417 15.6465 16.6465L16.8262 15.4658C15.3311 15.3748 14.0844 15.0834 12.9932 14.4287C11.6266 13.6087 10.5723 12.2627 9.55273 10.2236C8.57236 8.26285 7.62645 7.10875 6.49316 6.42868C5.35835 5.74779 3.96632 5.49997 2 5.49997C1.72387 5.49997 1.50002 5.27609 1.5 4.99997C1.5 4.72382 1.72386 4.49996 2 4.49996ZM8.41699 11.7099C8.57719 11.485 8.88934 11.4326 9.11426 11.5927C9.33914 11.7529 9.39161 12.0651 9.23145 12.29C8.35102 13.5263 7.38154 14.3442 6.18652 14.8428C5.00415 15.336 3.63999 15.5 2 15.5C1.72386 15.5 1.5 15.2761 1.5 15C1.5 14.7238 1.72386 14.5 2 14.5C3.58562 14.5 4.79691 14.3391 5.80176 13.9199C6.79405 13.5059 7.62411 12.8233 8.41699 11.7099ZM15.6465 2.64645C15.8417 2.45118 16.1583 2.45118 16.3535 2.64645L18.3535 4.64645C18.3874 4.68031 18.4134 4.71886 18.4355 4.75875C18.4601 4.80296 18.48 4.8502 18.4902 4.90133C18.5032 4.96607 18.5031 5.03287 18.4902 5.09762C18.4801 5.14881 18.46 5.19593 18.4355 5.2402C18.4134 5.28034 18.3876 5.31943 18.3535 5.35348L16.3535 7.35348C16.1583 7.54869 15.8417 7.54866 15.6465 7.35348C15.4512 7.15823 15.4513 6.84172 15.6465 6.64645L16.751 5.54098C15.7515 5.61141 14.9214 5.77835 14.1982 6.08005C13.2059 6.49405 12.3759 7.17665 11.583 8.29001C11.4228 8.5149 11.1107 8.56737 10.8857 8.4072C10.6609 8.247 10.6084 7.93484 10.7686 7.70993C11.649 6.47364 12.6185 5.65578 13.8135 5.15719C14.7016 4.78671 15.6922 4.60119 16.8252 4.53219L15.6465 3.35348C15.4512 3.15823 15.4513 2.84171 15.6465 2.64645Z" fill="var(--fill-0, black)" fill-opacity="0.9"/>
</g>
</svg>
