<svg preserveAspectRatio="none" width="100%" height="100%" overflow="visible" style="display: block;" viewBox="0 0 14 14" fill="none" xmlns="http://www.w3.org/2000/svg">
<g id="researcher-l1">
<path id="Vector" d="M1.4 11.757H5.18232L3.41387 11.0495C3.25457 10.9857 3.15009 10.8314 3.15 10.6598V4.05701H1.4V11.757ZM3.85 10.4691L6.65 11.5902V2.56677L3.85 1.72732V10.4691ZM7.35 2.56677V11.5779L10.15 10.3891V1.72732L7.35 2.56677ZM10.85 10.5744C10.85 10.7429 10.7494 10.8954 10.5943 10.9613L8.72061 11.757H12.6V3.94695H10.85V10.5744ZM13.3 12.0373C13.2999 12.2691 13.1121 12.4569 12.8803 12.457H1.11973C0.887929 12.4569 0.700063 12.2691 0.7 12.0373V3.77742C0.7 3.54555 0.887893 3.35715 1.11973 3.35701H3.15V1.35134C3.15 1.0876 3.38831 0.893697 3.64014 0.937085L3.69072 0.948706L7 1.94128L10.3093 0.948706L10.3599 0.937085C10.6117 0.893697 10.85 1.0876 10.85 1.35134V3.24695H12.8803C13.1121 3.2471 13.3 3.43549 13.3 3.66736V12.0373Z" fill="var(--fill-0, black)"/>
</g>
</svg>
