<svg preserveAspectRatio="none" width="100%" height="100%" overflow="visible" style="display: block;" viewBox="0 0 20.0027 14.3018" fill="none" xmlns="http://www.w3.org/2000/svg">
<path id="Union" d="M10.0009 0C13.5762 8.99805e-05 16.0762 1.75724 17.665 3.4873C18.4587 4.35162 19.0312 5.2145 19.4052 5.86133C19.5924 6.18512 19.7309 6.45657 19.8232 6.64844C19.8693 6.74426 19.9041 6.82077 19.9277 6.87402C19.9394 6.90052 19.9488 6.9218 19.955 6.93652C19.958 6.94367 19.9601 6.94993 19.9619 6.9541C19.9626 6.95593 19.9633 6.95777 19.9638 6.95898L19.9648 6.96094V6.96191C19.9605 6.96391 19.9177 6.98106 19.5029 7.15039L19.9648 7.33984V7.34082L19.9638 7.34277C19.9633 7.34404 19.9627 7.34575 19.9619 7.34766C19.9601 7.35188 19.9581 7.35801 19.955 7.36523C19.9488 7.38001 19.9394 7.40115 19.9277 7.42773C19.9041 7.48104 19.8693 7.55741 19.8232 7.65332C19.7309 7.84524 19.5925 8.11655 19.4052 8.44043C19.0312 9.08731 18.4588 9.95008 17.665 10.8145C16.0762 12.5445 13.5762 14.3017 10.0009 14.3018C6.42587 14.3017 3.92571 12.5444 2.33686 10.8145C1.54334 9.95035 0.971625 9.0872 0.597604 8.44043C0.410419 8.11671 0.27196 7.84522 0.179636 7.65332C0.133565 7.55755 0.0987211 7.48105 0.0751434 7.42773C0.0634268 7.40124 0.0540781 7.38001 0.0477997 7.36523C0.0447461 7.35804 0.0417697 7.35189 0.0399872 7.34766C0.0392279 7.34583 0.0385313 7.344 0.0380341 7.34277L0.0370575 7.34082V7.33984C-0.0123649 7.21876 -0.0123401 7.08301 0.0370575 6.96191V6.96094L0.0380341 6.95898C0.0385486 6.95774 0.0391865 6.95603 0.0399872 6.9541C0.0417521 6.94986 0.044693 6.94383 0.0477997 6.93652C0.0540739 6.92175 0.0633686 6.90065 0.0751434 6.87402C0.0987176 6.82071 0.133497 6.74435 0.179636 6.64844C0.271955 6.45653 0.410337 6.18519 0.597604 5.86133C0.971621 5.21452 1.54323 4.35154 2.33686 3.4873C3.9257 1.75725 6.42571 8.87348e-05 10.0009 0ZM10.0009 1C6.78985 1.00009 4.53922 2.56878 3.07417 4.16406C2.34105 4.96236 1.80985 5.76218 1.46284 6.3623C1.28971 6.66173 1.16264 6.9103 1.08003 7.08203C1.06834 7.10633 1.05772 7.12926 1.0478 7.15039C1.05779 7.17169 1.06823 7.1952 1.08003 7.21973C1.16264 7.39145 1.28979 7.64016 1.46284 7.93945C1.80985 8.53955 2.34117 9.33953 3.07417 10.1377C4.53923 11.7329 6.79001 13.3017 10.0009 13.3018C13.212 13.3017 15.4636 11.733 16.9287 10.1377C17.6616 9.3395 18.192 8.53952 18.539 7.93945C18.7122 7.63994 18.8392 7.39151 18.9218 7.21973C18.9336 7.19527 18.9431 7.17165 18.9531 7.15039C18.9432 7.12942 18.9334 7.10611 18.9218 7.08203C18.8392 6.91031 18.7121 6.66173 18.539 6.3623C18.1921 5.7623 17.6615 4.9622 16.9287 4.16406C15.4636 2.56878 13.212 1.00009 10.0009 1ZM10.0019 3.7998C11.852 3.79997 13.3522 5.30034 13.3525 7.15039C13.3524 9.00055 11.852 10.5008 10.0019 10.501C8.15161 10.501 6.65143 9.00065 6.65132 7.15039C6.65155 5.30023 8.15169 3.7998 10.0019 3.7998ZM10.0019 4.7998C8.70397 4.7998 7.65155 5.85252 7.65132 7.15039C7.65143 8.44837 8.7039 9.50098 10.0019 9.50098C11.2998 9.50081 12.3524 8.44827 12.3525 7.15039C12.3522 5.85262 11.2997 4.79997 10.0019 4.7998ZM19.9658 6.96191C20.015 7.08288 20.0151 7.2189 19.9658 7.33984L19.5029 7.15039L19.9658 6.96191Z" fill="var(--fill-0, black)" fill-opacity="0.9"/>
</svg>
