<svg preserveAspectRatio="none" width="100%" height="100%" overflow="visible" style="display: block;" viewBox="0 0 20 20" fill="none" xmlns="http://www.w3.org/2000/svg">
<g id="Sidebar Icon">
<path id="Union" d="M16.25 2.25C17.3546 2.25 18.25 3.14543 18.25 4.25V5.55566C18.2499 5.83176 18.0261 6.05566 17.75 6.05566C17.4739 6.05566 17.2501 5.83176 17.25 5.55566V4.25C17.25 3.69772 16.8023 3.25 16.25 3.25H3.75C3.19772 3.25 2.75 3.69772 2.75 4.25V15.75C2.75 16.3023 3.19772 16.75 3.75 16.75H16.25C16.8023 16.75 17.25 16.3023 17.25 15.75V14.4443C17.2501 14.1682 17.4739 13.9443 17.75 13.9443C18.0261 13.9443 18.2499 14.1682 18.25 14.4443V15.75C18.25 16.8546 17.3546 17.75 16.25 17.75H3.75C2.64543 17.75 1.75 16.8546 1.75 15.75V4.25C1.75 3.14543 2.64543 2.25 3.75 2.25H16.25ZM12.5996 5.7002C12.7653 5.47955 13.079 5.43425 13.2998 5.59961C13.5203 5.76523 13.5656 6.07901 13.4004 6.2998L7.40039 14.2998C7.23486 14.5205 6.92108 14.5655 6.7002 14.4004C6.47939 14.2348 6.4342 13.9211 6.59961 13.7002L12.5996 5.7002ZM17.75 10.6113C18.0261 10.6113 18.25 10.8352 18.25 11.1113V12.2227C18.2498 12.4986 18.026 12.7227 17.75 12.7227C17.474 12.7227 17.2502 12.4986 17.25 12.2227V11.1113C17.25 10.8352 17.4739 10.6113 17.75 10.6113ZM17.75 7.27734C18.026 7.27734 18.2498 7.5014 18.25 7.77734V8.88867C18.25 9.16481 18.0261 9.38867 17.75 9.38867C17.4739 9.38867 17.25 9.16481 17.25 8.88867V7.77734C17.2502 7.5014 17.474 7.27734 17.75 7.27734Z" fill="var(--fill-0, black)" fill-opacity="0.9"/>
</g>
</svg>
