<svg preserveAspectRatio="none" width="100%" height="100%" overflow="visible" style="display: block;" viewBox="0 0 20 20" fill="none" xmlns="http://www.w3.org/2000/svg">
<g id="Sidebar Icon">
<path id="Union" d="M4.5 2.5C4.77614 2.5 5 2.72386 5 3C5 3.27614 4.77614 3.5 4.5 3.5H4C3.44772 3.5 3 3.94772 3 4.5C3 5.05228 3.44772 5.5 4 5.5H15.5C16.8807 5.5 18 6.61929 18 8V15C18 16.3807 16.8807 17.5 15.5 17.5H4.5C3.11929 17.5 2 16.3807 2 15V4.5C2 3.39543 2.89543 2.5 4 2.5H4.5ZM3 15C3 15.8284 3.67157 16.5 4.5 16.5H15.5C16.3284 16.5 17 15.8284 17 15V8C17 7.17157 16.3284 6.5 15.5 6.5H4C3.63519 6.5 3.29446 6.40012 3 6.22949V15ZM14 10.5C14.5523 10.5 15 10.9477 15 11.5C15 12.0523 14.5523 12.5 14 12.5C13.4477 12.5 13 12.0523 13 11.5C13 10.9477 13.4477 10.5 14 10.5ZM7 2.5C7.27614 2.5 7.5 2.72386 7.5 3C7.5 3.27614 7.27614 3.5 7 3.5H6.5C6.22386 3.5 6 3.27614 6 3C6 2.72386 6.22386 2.5 6.5 2.5H7ZM10 2.5C10.2761 2.5 10.5 2.72386 10.5 3C10.5 3.27614 10.2761 3.5 10 3.5H9C8.72386 3.5 8.5 3.27614 8.5 3C8.5 2.72386 8.72386 2.5 9 2.5H10ZM13 2.5C13.2761 2.5 13.5 2.72386 13.5 3C13.5 3.27614 13.2761 3.5 13 3.5H12C11.7239 3.5 11.5 3.27614 11.5 3C11.5 2.72386 11.7239 2.5 12 2.5H13ZM15.5 2.5C15.7761 2.5 16 2.72386 16 3C16 3.27614 15.7761 3.5 15.5 3.5H15C14.7239 3.5 14.5 3.27614 14.5 3C14.5 2.72386 14.7239 2.5 15 2.5H15.5Z" fill="var(--fill-0, black)" fill-opacity="0.9"/>
</g>
</svg>
