<svg preserveAspectRatio="none" width="100%" height="100%" overflow="visible" style="display: block;" viewBox="0 0 20 20" fill="none" xmlns="http://www.w3.org/2000/svg">
<g id="Sidebar Icon">
<path id="Union" d="M10 1.00098C14.965 1.00122 18.9896 5.02306 18.9971 9.98633C18.9972 9.99089 18.999 9.99541 18.999 10C18.999 10.1977 18.9921 10.3942 18.9795 10.5889C18.9615 10.8643 18.7237 11.0735 18.4482 11.0557C18.1729 11.0378 17.9638 10.7998 17.9814 10.5244C17.9926 10.3512 17.999 10.1762 17.999 10H17.998C17.998 5.58273 14.4172 2.00122 10 2.00098C5.58264 2.00107 2.00107 5.58264 2.00098 10C2.00122 14.4172 5.58273 17.998 10 17.998V17.999C10.1762 17.999 10.3512 17.9926 10.5244 17.9814C10.7998 17.9638 11.0378 18.1729 11.0557 18.4482C11.0735 18.7237 10.8643 18.9615 10.5889 18.9795C10.3942 18.9921 10.1977 18.999 10 18.999C9.99541 18.999 9.99089 18.9972 9.98633 18.9971C5.02306 18.9896 1.00122 14.965 1.00098 10C1.00107 5.03035 5.03035 1.00107 10 1.00098ZM13.5381 17.1758C13.7857 17.0535 14.0857 17.1548 14.208 17.4023C14.3303 17.6498 14.2289 17.9499 13.9814 18.0723C13.6312 18.2453 13.2678 18.3964 12.8936 18.5234C12.6321 18.6122 12.3485 18.4714 12.2598 18.21C12.1712 17.9485 12.3108 17.6649 12.5723 17.5762C12.9045 17.4634 13.227 17.3295 13.5381 17.1758ZM16.0137 15.2734C16.1958 15.0659 16.5122 15.0454 16.7197 15.2275C16.9273 15.4097 16.9478 15.7261 16.7656 15.9336C16.5067 16.2287 16.2287 16.5067 15.9336 16.7656C15.7261 16.9478 15.4097 16.9273 15.2275 16.7197C15.0454 16.5122 15.0659 16.1958 15.2734 16.0137C15.5359 15.7833 15.7833 15.5359 16.0137 15.2734ZM17.5762 12.5723C17.6649 12.3108 17.9485 12.1712 18.21 12.2598C18.4714 12.3485 18.6122 12.6321 18.5234 12.8936C18.3964 13.2678 18.2453 13.6312 18.0723 13.9814C17.9499 14.2289 17.6498 14.3303 17.4023 14.208C17.1548 14.0857 17.0535 13.7857 17.1758 13.5381C17.3295 13.227 17.4634 12.9045 17.5762 12.5723ZM12.6768 6.43848C12.8563 6.37863 13.0546 6.42587 13.1885 6.55957C13.3054 6.67669 13.3564 6.843 13.3271 7.00293L13.3096 7.07129L11.8291 11.5127C11.7793 11.6618 11.6618 11.7793 11.5127 11.8291L7.07129 13.3086C6.89175 13.3682 6.69334 13.3213 6.55957 13.1875C6.42602 13.0536 6.37962 12.8552 6.43945 12.6758L7.9209 8.23535C7.97075 8.08633 8.08822 7.96965 8.2373 7.91992L12.6768 6.43848ZM8.79102 8.79004L7.70508 12.043L10.96 10.959L12.0449 7.7041L8.79102 8.79004Z" fill="var(--fill-0, black)" fill-opacity="0.9"/>
</g>
</svg>
