<svg preserveAspectRatio="none" width="100%" height="100%" overflow="visible" style="display: block;" viewBox="0 0 20 20" fill="none" xmlns="http://www.w3.org/2000/svg">
<g id="Sidebar Icon">
<path id="Union" d="M12.7842 18.9199C13.0602 18.9201 13.2842 19.1439 13.2842 19.4199C13.2842 19.696 13.0602 19.9198 12.7842 19.9199H7.21582C6.93987 19.9197 6.71582 19.6959 6.71582 19.4199C6.71583 19.1439 6.93987 18.9201 7.21582 18.9199H12.7842ZM10.001 0.0791016C14.6357 0.0795091 18.4277 3.69355 18.4277 8.19336C18.4277 10.4132 17.5018 12.4231 16.0078 13.8848C15.3471 14.5311 14.8065 15.3053 14.4287 15.9277C14.241 16.237 14.0959 16.505 13.998 16.6943C13.9493 16.7887 13.912 16.8637 13.8877 16.9141C13.8756 16.9391 13.8662 16.9583 13.8604 16.9707C13.8575 16.9768 13.8558 16.9816 13.8545 16.9844C13.8539 16.9856 13.8537 16.9868 13.8535 16.9873L13.8184 17.0508C13.7274 17.1921 13.5697 17.28 13.3984 17.2803H6.60352C6.40766 17.2803 6.2297 17.1655 6.14844 16.9873C6.14822 16.9868 6.14713 16.9857 6.14648 16.9844C6.14522 16.9816 6.14346 16.9768 6.14062 16.9707C6.13484 16.9584 6.12539 16.9391 6.11328 16.9141C6.08894 16.8637 6.05169 16.7887 6.00293 16.6943C5.90511 16.5051 5.75993 16.2369 5.57227 15.9277C5.19455 15.3055 4.65456 14.531 3.99414 13.8848C2.50009 12.4231 1.57331 10.4133 1.57324 8.19336C1.57324 3.6933 5.36589 0.0791016 10.001 0.0791016ZM10.001 1.0791C5.87979 1.0791 2.57324 4.2832 2.57324 8.19336C2.57331 10.1275 3.37926 11.8843 4.69336 13.1699C5.43631 13.8969 6.02586 14.7487 6.42676 15.4092C6.62828 15.7412 6.78515 16.0294 6.8916 16.2354C6.89948 16.2506 6.90672 16.2659 6.91406 16.2803H13.0869C13.0943 16.2659 13.1015 16.2506 13.1094 16.2354C13.2158 16.0294 13.3727 15.7412 13.5742 15.4092C13.9751 14.7487 14.5646 13.8969 15.3076 13.1699C16.6216 11.8843 17.4277 10.1274 17.4277 8.19336C17.4277 4.28345 14.1218 1.07951 10.001 1.0791ZM9.99902 3.72559C10.2751 3.72566 10.499 3.94949 10.499 4.22559V5.30762C11.3735 5.34131 12.164 5.84751 12.5576 6.63477C12.6806 6.88156 12.5816 7.18223 12.335 7.30566C12.0884 7.42877 11.7878 7.32814 11.6641 7.08203C11.4256 6.60515 10.9375 6.30386 10.4043 6.30469H10.0186C10.0121 6.30495 10.0056 6.30762 9.99902 6.30762C9.99218 6.30761 9.98529 6.30496 9.97852 6.30469L9.40137 6.30664C8.80498 6.30788 8.35082 6.84173 8.44531 7.43066C8.50575 7.80472 8.77841 8.11048 9.14355 8.21191L10.1338 8.48633H10.1348L11.1094 8.73047C11.9914 8.95101 12.6103 9.74316 12.6104 10.6523C12.6101 11.7464 11.7231 12.6338 10.6289 12.6338H10.499V13.7217C10.4986 13.9974 10.2748 14.2216 9.99902 14.2217C9.72315 14.2217 9.49945 13.9975 9.49902 13.7217V12.6299C8.62534 12.5944 7.83584 12.0884 7.44238 11.3018C7.31912 11.0549 7.41932 10.7544 7.66602 10.6309C7.91285 10.5077 8.21341 10.6078 8.33691 10.8545C8.5756 11.3316 9.06324 11.6337 9.59668 11.6338H10.6289C11.1708 11.6338 11.6101 11.1942 11.6104 10.6523C11.6103 10.2021 11.3039 9.80952 10.8672 9.7002L9.87891 9.45312C9.87725 9.45271 9.87567 9.45162 9.87402 9.45117C9.87154 9.45052 9.8687 9.45086 9.86621 9.4502L8.87598 9.1748C8.13417 8.9687 7.5803 8.34895 7.45801 7.58887C7.26608 6.39269 8.18892 5.30857 9.40039 5.30664L9.49902 5.30566V4.22559C9.49902 3.94945 9.72289 3.72559 9.99902 3.72559Z" fill="url(#paint0_linear_0_779)"/>
</g>
<defs>
<linearGradient id="paint0_linear_0_779" x1="1.57324" y1="9.99951" x2="18.4277" y2="9.99951" gradientUnits="userSpaceOnUse">
<stop stop-color="#1CA8A1"/>
<stop offset="0.42" stop-color="#4C73E6"/>
<stop offset="0.74" stop-color="#9656DE"/>
<stop offset="1" stop-color="#D68E21"/>
</linearGradient>
</defs>
</svg>
