<svg width="20" height="20" viewBox="0 0 20 20" fill="none" xmlns="http://www.w3.org/2000/svg">
<path d="M19.0005 10.2003C19.0005 9.45986 18.9392 8.91984 18.8074 8.35938H10.1836V11.7001H15.245C15.1435 12.5297 14.5929 13.78 13.368 14.6203L13.3508 14.7315L16.0771 16.8016L16.2653 16.8196C18.0015 15.2503 19.0005 12.9397 19.0005 10.2003Z" fill="#4285F4"/>
<path d="M10.1844 18.9999C12.6636 18.9999 14.7451 18.1997 16.2661 16.8194L13.368 14.6201C12.5924 15.1503 11.5516 15.5201 10.1844 15.5201C9.03194 15.5202 7.90835 15.1595 6.97127 14.4886C6.0342 13.8177 5.33067 12.8703 4.95938 11.7793L4.85138 11.7883L2.01631 13.9385L1.97949 14.04C3.48989 16.9798 6.59251 18.9999 10.1844 18.9999Z" fill="#34A853"/>
<path d="M4.96009 11.7796C4.75885 11.2077 4.65459 10.6062 4.65163 9.99999C4.65163 9.37979 4.76454 8.78005 4.947 8.2204L4.94209 8.10013L2.07184 5.91553L1.97775 5.95971C1.33611 7.2099 1.00097 8.59476 1 9.99999C1 11.4498 1.35674 12.8203 1.97939 14.0403L4.96009 11.7796Z" fill="#FBBC05"/>
<path d="M10.1844 4.47981C11.9092 4.47981 13.0718 5.20964 13.7354 5.82002L16.3267 3.34006C14.7352 1.8902 12.6636 1 10.1844 1C6.59169 1 3.48989 3.02014 1.97949 5.95994L4.94956 8.22063C5.32404 7.12968 6.02973 6.18285 6.96818 5.51225C7.90662 4.84164 9.03099 4.48071 10.1844 4.47981Z" fill="#EB4335"/>
</svg>
