<svg preserveAspectRatio="none" width="100%" height="100%" overflow="visible" style="display: block;" viewBox="0 0 20 20" fill="none" xmlns="http://www.w3.org/2000/svg">
<g id="swap-l">
<path id="Union" d="M17.0459 11.7539C17.3218 11.7541 17.5458 11.978 17.5459 12.2539C17.5458 12.5299 17.3218 12.7537 17.0459 12.7539H4.16211L7.25391 15.8457C7.44899 16.0409 7.4488 16.3575 7.25391 16.5528C7.05867 16.748 6.74214 16.748 6.54688 16.5528L2.60156 12.6074C2.45857 12.4644 2.41578 12.2493 2.49316 12.0625C2.57065 11.8759 2.75299 11.7539 2.95508 11.7539H17.0459ZM13.1309 3.44629C13.3261 3.25105 13.6426 3.25111 13.8379 3.44629L17.6807 7.28907C17.8235 7.43207 17.8664 7.64728 17.7891 7.83399C17.7116 8.02061 17.5292 8.14252 17.3272 8.14259H2.67285C2.39684 8.14259 2.17306 7.91855 2.17285 7.64259C2.17295 7.36653 2.39677 7.14258 2.67285 7.14258H16.1201L13.1309 4.15332C12.9358 3.95811 12.9358 3.64154 13.1309 3.44629Z" fill="var(--fill-0, black)" fill-opacity="0.9"/>
</g>
</svg>
