<svg preserveAspectRatio="none" width="100%" height="100%" overflow="visible" style="display: block;" viewBox="0 0 16 16" fill="none" xmlns="http://www.w3.org/2000/svg">
<g id="unfoldd-l">
<path id="Union" d="M6.11758 9.31719C6.2738 9.16113 6.52704 9.16103 6.6832 9.31719C6.83924 9.47336 6.83922 9.72663 6.6832 9.88281L2.96602 13.6H6.40039C6.62117 13.6001 6.80037 13.7792 6.80039 14C6.80039 14.2208 6.62118 14.3999 6.40039 14.4H2.00039C1.77948 14.4 1.60039 14.2209 1.60039 14V9.65391C1.60041 9.43301 1.77949 9.25391 2.00039 9.25391C2.22117 9.25405 2.40037 9.4331 2.40039 9.65391V13.0344L6.11758 9.31719ZM14.0004 1.6C14.2211 1.6002 14.4004 1.77921 14.4004 2V6.4C14.4002 6.62064 14.221 6.79981 14.0004 6.8C13.7796 6.8 13.6006 6.62076 13.6004 6.4V2.96563L9.8832 6.68359C9.72716 6.83941 9.47376 6.8392 9.31758 6.68359C9.16136 6.52739 9.16138 6.27341 9.31758 6.11719L13.0348 2.4H9.6543C9.4335 2.4 9.2537 2.22076 9.25352 2C9.25352 1.77909 9.43338 1.6 9.6543 1.6H14.0004Z" fill="var(--fill-0, black)" fill-opacity="0.9"/>
</g>
</svg>
