<svg width="50" height="50" viewBox="0 0 50 50" fill="none" xmlns="http://www.w3.org/2000/svg">
<path fill-rule="evenodd" clip-rule="evenodd" d="M34.4684 0.397058C38.1369 -0.132341 41.8624 -0.132364 45.5309 0.397058C45.8246 0.439446 46.1194 0.486373 46.7086 0.580652C46.9049 0.612064 47.0035 0.628453 47.0914 0.648035C48.2192 0.899298 49.1009 1.77999 49.3522 2.9078C49.3717 2.99576 49.3872 3.09432 49.4186 3.29061C49.5129 3.8799 49.5598 4.17464 49.6022 4.46835C50.1316 8.13701 50.1316 11.8632 49.6022 15.5318C49.5598 15.8255 49.5128 16.1204 49.4186 16.7096C49.3871 16.906 49.3718 17.0044 49.3522 17.0924C49.1009 18.2202 48.2192 19.1009 47.0914 19.3521C47.0035 19.3717 46.9049 19.3871 46.7086 19.4185C46.1193 19.5128 45.8246 19.5607 45.5309 19.6031C43.6966 19.8678 41.8481 19.9996 39.9996 19.9996C28.9548 20.0001 20.0013 28.9538 20.0006 39.9986H19.9996C19.9997 41.8476 19.8679 43.6971 19.6031 45.5318C19.5608 45.8255 19.5128 46.1203 19.4186 46.7096C19.3871 46.906 19.3718 47.0043 19.3522 47.0924C19.1009 48.2202 18.2202 49.1009 17.0924 49.3521C17.0044 49.3717 16.906 49.3871 16.7096 49.4185C16.1203 49.5128 15.8255 49.5607 15.5318 49.6031C11.8632 50.1326 8.13701 50.1326 4.46837 49.6031C4.17464 49.5607 3.88002 49.5128 3.29064 49.4185C3.0942 49.3871 2.99583 49.3717 2.90783 49.3521C1.78005 49.1009 0.899342 48.2201 0.64806 47.0924C0.628444 47.0043 0.612121 46.9061 0.580677 46.7096C0.486402 46.1203 0.439464 45.8255 0.397083 45.5318C-0.132361 41.8632 -0.132361 38.137 0.397083 34.4683C0.439471 34.1746 0.486392 33.8799 0.580677 33.2906C0.612101 33.0942 0.628467 32.9958 0.64806 32.9078C0.899321 31.78 1.78002 30.8993 2.90783 30.648C2.99585 30.6284 3.09415 30.6121 3.29064 30.5807C3.87992 30.4864 4.17468 30.4394 4.46837 30.3971C6.30257 30.1324 8.15117 29.9996 9.99962 29.9996V29.9976C20.8724 29.9974 29.7188 21.322 29.9928 10.5152L29.9996 9.99862C29.9997 8.15047 30.1314 6.30225 30.3961 4.46835C30.4385 4.1746 30.4864 3.87999 30.5807 3.29061C30.6121 3.09428 30.6275 2.99577 30.6471 2.9078C30.8983 1.7801 31.7792 0.899397 32.9068 0.648035C32.9949 0.628428 33.0933 0.612069 33.2897 0.580652C33.8791 0.486335 34.1746 0.439454 34.4684 0.397058Z" fill="#49A3A6"/>
<path fill-rule="evenodd" clip-rule="evenodd" d="M45.5312 30.3971C41.8626 29.8677 38.1372 29.8677 34.4687 30.3971C34.1749 30.4395 33.8794 30.4864 33.29 30.5807C33.0936 30.6121 32.9952 30.6275 32.9071 30.6471C31.7795 30.8984 30.8988 31.7793 30.6474 32.9069C30.6278 32.9949 30.6124 33.0941 30.581 33.2906C30.4867 33.8799 30.4388 34.1747 30.3964 34.4684C29.867 38.1368 29.867 41.8624 30.3964 45.5309C30.4388 45.8246 30.4867 46.1201 30.581 46.7096C30.6124 46.9059 30.6278 47.0044 30.6474 47.0924C30.8987 48.2201 31.7795 49.1009 32.9071 49.3522C32.9952 49.3718 33.0936 49.3872 33.29 49.4186C33.8794 49.5129 34.1749 49.5607 34.4687 49.6031C38.1371 50.1325 41.8627 50.1326 45.5312 49.6031C45.8249 49.5608 46.1196 49.5129 46.7089 49.4186C46.9052 49.3872 47.0038 49.3717 47.0917 49.3522C48.2195 49.1009 49.1012 48.2202 49.3525 47.0924C49.3721 47.0044 49.3874 46.906 49.4189 46.7096C49.5132 46.1201 49.5601 45.8246 49.6025 45.5309C50.1319 41.8624 50.1319 38.1369 49.6025 34.4684C49.5601 34.1747 49.5131 33.8799 49.4189 33.2906C49.3874 33.0941 49.3721 32.9949 49.3525 32.9069C49.1011 31.7792 48.2194 30.8983 47.0917 30.6471C47.0038 30.6275 46.9051 30.6121 46.7089 30.5807C46.1196 30.4864 45.8249 30.4395 45.5312 30.3971ZM15.5322 0.397086C11.8635 -0.132362 8.13731 -0.132362 4.46867 0.397086C4.17498 0.439473 3.88023 0.486393 3.29094 0.580679C3.09461 0.612093 2.9961 0.627503 2.90813 0.647086C1.78049 0.898312 0.899769 1.77928 0.648361 2.90685C0.628742 2.99491 0.612434 3.09405 0.580978 3.29064C0.486706 3.87984 0.43977 4.17467 0.397385 4.46837C-0.132023 8.13688 -0.132004 11.8624 0.397385 15.5309C0.439781 15.8246 0.48666 16.1201 0.580978 16.7096C0.6124 16.906 0.628754 17.0044 0.648361 17.0924C0.899708 18.2201 1.78042 19.1009 2.90813 19.3522C2.99611 19.3718 3.09457 19.3871 3.29094 19.4186C3.88032 19.5129 4.17493 19.5607 4.46867 19.6031C8.13731 20.1326 11.8635 20.1326 15.5322 19.6031C15.8258 19.5608 16.1207 19.5128 16.7099 19.4186C16.9063 19.3871 17.0047 19.3718 17.0927 19.3522C18.2204 19.1009 19.1011 18.2201 19.3525 17.0924C19.3721 17.0044 19.3875 16.9059 19.4189 16.7096C19.5132 16.1201 19.561 15.8246 19.6034 15.5309C20.1328 11.8624 20.1328 8.13685 19.6034 4.46837C19.5611 4.17466 19.5131 3.8799 19.4189 3.29064C19.3874 3.09405 19.3721 2.99491 19.3525 2.90685C19.1011 1.77924 18.2204 0.898318 17.0927 0.647086C17.0047 0.627474 16.9063 0.612111 16.7099 0.580679C16.1207 0.486415 15.8258 0.439463 15.5322 0.397086Z" fill="#1a1a1e"/>
</svg>
