<svg width="20" height="20" viewBox="0 0 20 20" fill="none" xmlns="http://www.w3.org/2000/svg">
<path d="M0 10C0 4.47715 4.47715 0 10 0C15.5228 0 20 4.47715 20 10C20 15.5228 15.5228 20 10 20C4.47715 20 0 15.5228 0 10Z" fill="#F0B90B"/>
<path d="M7.47528 8.96263L9.99988 6.43814L12.5258 8.96393L13.9948 7.49496L9.99988 3.5L6.00635 7.49366L7.47528 8.96263ZM3.5 9.99968L4.96904 8.53066L6.43798 9.99959L4.96896 11.4686L3.5 9.99968ZM7.47528 11.0371L9.99988 13.5616L12.5257 11.0359L13.9955 12.5041L13.9948 12.5049L9.99988 16.4998L6.00622 12.5062L6.00414 12.5042L7.47528 11.0371ZM13.562 10.0005L15.0311 8.53147L16.5 10.0004L15.031 11.4694L13.562 10.0005Z" fill="white"/>
<path d="M11.4892 10.0004H11.4898L9.99917 8.50977L8.89755 9.61137H8.89749L8.77093 9.73798L8.50989 9.99908L8.50781 10.0011L8.50989 10.0032L9.99917 11.4926L11.4898 10.0019L11.4905 10.0011L11.4892 10.0004Z" fill="white"/>
</svg>
